<?xml version="1.0" standalone="no"?>
<!DOCTYPE svg PUBLIC "-//W3C//DTD SVG 20010904//EN"
 "http://www.w3.org/TR/2001/REC-SVG-20010904/DTD/svg10.dtd">
<svg version="1.0" xmlns="http://www.w3.org/2000/svg"
 width="948.000000pt" height="243.000000pt" viewBox="0 0 948.000000 243.000000"
 preserveAspectRatio="xMidYMid meet">

<g transform="translate(0.000000,243.000000) scale(0.100000,-0.100000)"
fill="#000000" stroke="none">
<path d="M1010 1945 c-201 -43 -369 -194 -448 -403 -23 -60 -26 -81 -26 -197
1 -108 5 -140 23 -190 68 -189 219 -339 397 -394 296 -93 612 44 744 324 45
96 60 160 60 263 0 145 -46 270 -140 386 -62 76 -114 117 -207 162 -126 61
-266 78 -403 49z m200 -360 c42 -43 52 -57 42 -67 -9 -9 -21 -3 -55 30 -23 23
-47 42 -52 42 -5 0 -69 -61 -141 -135 -73 -74 -137 -135 -142 -135 -6 0 -13 4
-16 9 -7 11 282 311 298 311 7 0 36 -25 66 -55z m140 -57 l0 -83 50 -54 c53
-57 58 -66 36 -74 -8 -3 -34 17 -65 51 l-51 56 0 73 c0 51 -4 73 -12 74 -7 1
-17 2 -23 4 -5 1 -16 3 -22 3 -7 1 -13 9 -13 17 0 11 12 15 50 15 l50 0 0 -82z
m-408 -326 l3 -117 73 -3 c56 -2 72 -6 72 -18 0 -12 -16 -14 -92 -12 l-93 3
-3 124 c-3 136 0 154 22 145 12 -5 16 -30 18 -122z m446 -16 l-3 -131 -100 0
-100 0 -3 98 -3 97 -44 0 c-39 0 -45 3 -45 20 0 19 5 21 63 18 l62 -3 3 -102
3 -103 64 0 65 0 0 118 c0 65 3 121 6 125 3 3 12 3 20 0 12 -4 14 -30 12 -137z"/>
<path d="M2628 1611 c3 -88 2 -167 -1 -175 -6 -14 -11 -14 -49 0 -98 36 -207
14 -275 -56 -38 -39 -73 -124 -73 -179 0 -96 58 -204 132 -243 56 -29 176 -32
226 -5 31 17 35 17 52 2 12 -11 31 -15 57 -13 l38 3 3 393 c1 259 -1 400 -8
412 -8 16 -21 20 -59 20 l-48 0 5 -159z m-40 -281 l42 -19 0 -120 0 -120 -32
-18 c-49 -25 -148 -24 -184 3 -47 35 -67 70 -71 126 -10 133 113 208 245 148z"/>
<path d="M2897 1752 c-26 -28 -21 -69 9 -88 33 -22 75 -9 88 28 21 59 -56 106
-97 60z"/>
<path d="M4181 1744 c-12 -15 -21 -31 -21 -36 0 -17 49 -58 69 -58 27 0 63 48
55 74 -15 50 -71 61 -103 20z"/>
<path d="M8164 1744 c-63 -19 -145 -80 -158 -117 -8 -22 -6 -31 14 -52 30 -32
35 -32 78 6 77 68 154 84 227 49 94 -46 99 -143 13 -253 -18 -23 -101 -122
-185 -220 -84 -99 -153 -188 -153 -198 0 -19 9 -19 258 -17 l257 3 3 44 c2 26
-1 47 -8 51 -7 4 -77 7 -157 6 -79 -1 -146 1 -148 4 -2 4 37 53 87 111 176
202 192 224 212 282 20 59 20 80 1 144 -38 129 -196 202 -341 157z"/>
<path d="M8655 1727 c-3 -7 -4 -105 -3 -217 l3 -205 54 -13 c49 -12 57 -11 97
7 118 56 224 -5 224 -127 0 -77 -60 -132 -143 -132 -57 0 -106 21 -152 65 -21
19 -44 35 -51 35 -7 0 -25 -16 -41 -36 l-27 -37 55 -51 c65 -61 131 -86 223
-86 106 1 188 51 232 145 57 120 4 280 -111 334 -54 25 -149 28 -202 6 -19 -8
-37 -15 -39 -15 -2 0 -4 52 -4 115 l0 115 159 0 c178 0 184 2 179 67 l-3 38
-223 3 c-175 2 -224 0 -227 -11z"/>
<path d="M3854 1564 c-14 -31 -53 -84 -85 -119 -70 -74 -74 -93 -21 -97 l37
-3 5 -155 c6 -167 17 -204 65 -236 34 -22 101 -29 154 -14 43 11 43 11 36 48
-9 51 -10 52 -60 50 -74 -4 -80 9 -80 170 l0 137 63 3 62 3 0 49 0 49 -62 3
-63 3 -3 83 c-2 45 -7 82 -12 82 -5 0 -21 -25 -36 -56z"/>
<path d="M5658 1614 c-4 -3 -19 -31 -33 -61 -15 -30 -51 -79 -81 -110 -66 -67
-70 -90 -16 -95 l37 -3 5 -165 c5 -152 7 -168 28 -197 24 -34 71 -53 130 -53
43 0 103 25 98 42 -3 7 -7 25 -10 40 -6 26 -9 28 -58 26 -74 -1 -78 7 -78 174
l0 138 66 0 65 0 -3 48 -3 47 -60 5 -60 5 -3 75 c-3 71 -11 98 -24 84z"/>
<path d="M6627 1599 c-8 -13 -26 -45 -40 -71 -15 -25 -47 -66 -72 -90 -57 -54
-61 -88 -11 -88 22 0 36 -6 40 -16 3 -9 6 -78 6 -155 0 -153 10 -196 53 -224
34 -22 116 -30 161 -15 38 12 44 28 26 74 -8 23 -14 25 -56 24 -69 -3 -74 8
-74 173 l0 138 63 3 62 3 0 45 0 45 -60 5 -60 5 -3 75 c-3 84 -13 103 -35 69z"/>
<path d="M3283 1444 c-51 -19 -112 -76 -138 -129 -46 -96 -25 -235 46 -306 53
-53 100 -72 184 -73 83 -1 134 15 181 56 37 33 43 58 19 78 -13 11 -23 9 -57
-10 -60 -33 -152 -39 -206 -11 -37 19 -72 63 -72 91 0 6 56 10 163 10 89 0
172 3 184 6 36 10 47 52 29 119 -18 71 -58 122 -121 155 -59 30 -151 36 -212
14z m170 -109 c23 -16 57 -65 57 -82 0 -10 -33 -13 -133 -13 -74 0 -136 3
-140 6 -8 9 16 55 41 77 42 38 130 44 175 12z"/>
<path d="M4571 1443 c-61 -22 -136 -98 -152 -154 -27 -98 -8 -208 47 -269 90
-99 261 -116 367 -36 47 36 54 53 34 80 -14 19 -15 19 -63 -5 -67 -32 -157
-37 -204 -11 -32 18 -80 73 -80 93 0 5 76 9 170 9 104 0 179 4 194 11 29 14
37 40 27 94 -30 155 -187 242 -340 188z m165 -108 c28 -18 66 -74 58 -87 -7
-11 -274 -10 -274 1 0 20 49 78 80 94 40 21 97 18 136 -8z"/>
<path d="M5105 1436 c-58 -28 -85 -62 -92 -115 -11 -77 51 -138 174 -172 37
-11 76 -28 87 -38 18 -18 18 -21 3 -44 -27 -41 -80 -44 -176 -9 l-44 16 -23
-30 c-13 -16 -24 -35 -24 -41 0 -34 134 -77 219 -71 137 10 217 110 166 209
-20 38 -73 71 -163 99 -75 24 -102 41 -102 65 0 45 84 59 161 28 l42 -16 24
29 c31 39 29 59 -9 77 -93 43 -172 47 -243 13z"/>
<path d="M6047 1440 c-37 -10 -77 -26 -87 -35 -19 -17 -19 -18 0 -55 l20 -38
67 24 c92 32 156 32 189 -1 41 -41 29 -58 -57 -75 -188 -39 -259 -91 -259
-189 0 -55 17 -87 59 -114 51 -31 166 -31 236 1 l50 23 14 -20 c10 -16 24 -21
55 -21 l42 0 -3 183 c-4 203 -15 250 -64 291 -58 49 -146 58 -262 26z m208
-321 c0 -54 0 -54 -45 -76 -58 -30 -139 -31 -164 -4 -23 25 -17 59 14 82 25
19 166 60 185 55 6 -1 10 -27 10 -57z"/>
<path d="M7055 1445 c-102 -38 -165 -132 -165 -247 0 -159 99 -261 255 -262
83 -1 134 15 181 56 36 32 43 58 19 78 -12 10 -25 7 -67 -14 -91 -46 -202 -30
-248 34 -41 58 -37 60 144 60 91 0 176 4 190 10 80 30 11 217 -101 271 -59 29
-151 35 -208 14z m144 -101 c40 -16 62 -40 75 -81 l7 -23 -135 0 c-128 0 -136
1 -136 19 0 29 47 80 83 90 47 13 62 13 106 -5z"/>
<path d="M7607 1447 c-54 -17 -104 -70 -112 -117 -14 -82 43 -141 174 -180 40
-12 78 -29 86 -37 26 -26 18 -53 -21 -69 -40 -17 -92 -12 -158 14 -39 15 -39
15 -63 -14 -12 -16 -23 -35 -23 -42 0 -22 107 -64 175 -69 82 -7 153 16 195
63 25 29 30 43 30 86 0 46 -4 54 -39 89 -29 26 -63 45 -123 64 -115 38 -140
62 -100 98 24 22 89 22 142 1 45 -18 60 -12 85 37 13 25 13 28 -8 41 -67 42
-173 57 -240 35z"/>
<path d="M2887 1443 c-13 -12 -8 -478 5 -491 7 -7 31 -12 55 -12 l43 0 0 255
0 255 -48 0 c-27 0 -52 -3 -55 -7z"/>
<path d="M4177 1443 c-9 -8 -9 -466 -1 -487 4 -12 20 -16 55 -16 l49 0 0 255
0 255 -48 0 c-27 0 -52 -3 -55 -7z"/>
</g>
</svg>
